<svg width="95" height="33" viewBox="0 0 95 33" fill="none" xmlns="http://www.w3.org/2000/svg">
<path fill-rule="evenodd" clip-rule="evenodd" d="M1.01157 25.9566C0.675288 26.2484 0.466405 26.6797 0.475624 27.1571L0.549385 30.9747C0.565967 31.8337 1.28241 32.5164 2.14957 32.4997L4.15533 32.4611C5.07997 32.4434 5.95564 32.0456 6.57267 31.363C8.51435 29.2153 6.93757 25.8077 4.02787 25.8637L1.11376 25.9197C1.0764 25.9205 1.03968 25.9321 1.01157 25.9566ZM14.52 25.6618L26.2948 25.4353C26.7617 25.4264 27.2919 25.2626 27.6086 25.6025C27.8601 25.8723 28.0166 26.231 28.0242 26.6272L28.098 30.4446C28.1146 31.3037 27.4252 32.0134 26.558 32.0301L14.6474 32.2593C11.7378 32.3153 10.1609 28.9078 12.1026 26.7601C12.7197 26.0775 13.5953 25.6797 14.52 25.6618ZM13.0691 22.9094C12.8142 23.1912 12.4526 23.3556 12.0708 23.3629L3.64934 23.525C3.55856 23.5266 3.49877 23.3235 3.55938 23.2565L22.8646 1.90136C23.6518 1.03052 24.769 0.522987 25.9488 0.5003C26.8159 0.483605 27.5324 1.16642 27.549 2.02538L27.6226 5.84288C27.6324 6.3472 27.4724 6.87081 27.1799 7.28376C27.1443 7.33405 27.1053 7.38275 27.0629 7.42963L13.0691 22.9094ZM13.4636 7.67116C14.4347 7.65248 15.3542 7.23475 16.0021 6.51798C18.0411 4.26248 16.3853 0.684287 13.3298 0.743071L1.54037 0.969892C0.673215 0.986575 -0.0163032 1.69643 0.00029343 2.55538L0.0740474 6.3729C0.0906441 7.23186 0.807068 7.91467 1.67422 7.89797L13.4636 7.67116Z" fill="#F7931A"/>
<path d="M35.0399 31.9994C35.4388 31.9994 35.7978 31.9483 36.1169 31.8461C36.4361 31.7393 36.7129 31.5953 36.9476 31.4141C37.1822 31.2283 37.3746 31.01 37.5248 30.7592C37.6796 30.5084 37.7899 30.239 37.8556 29.951H36.8279C36.7528 30.1832 36.6355 30.3876 36.4759 30.5641C36.3211 30.7406 36.1263 30.88 35.8917 30.9822C35.6571 31.0797 35.3825 31.1285 35.0681 31.1285C34.4299 31.1285 33.9301 30.9009 33.5687 30.4457C33.2121 29.9858 33.0338 29.382 33.0338 28.6342V28.4809H37.9612V27.8538C37.9612 27.171 37.8439 26.5765 37.6093 26.0702C37.3746 25.5639 37.0344 25.1714 36.5886 24.8927C36.1474 24.6094 35.6125 24.4677 34.9836 24.4677C34.3501 24.4677 33.8104 24.6094 33.3646 24.8927C32.9235 25.1714 32.5856 25.5593 32.351 26.0563C32.121 26.5533 32.006 27.1246 32.006 27.7702V28.5993C32.006 29.2868 32.1257 29.886 32.365 30.3969C32.6091 30.9078 32.9587 31.3026 33.4139 31.5813C33.8691 31.86 34.4111 31.9994 35.0399 31.9994ZM33.0338 27.61C33.0338 27.6053 33.0338 27.603 33.0338 27.603C33.0338 27.5984 33.0338 27.5937 33.0338 27.5891C33.0338 27.1617 33.1135 26.7785 33.2731 26.4395C33.4327 26.1004 33.6579 25.8333 33.9489 25.6382C34.2445 25.4385 34.5894 25.3386 34.9836 25.3386C35.3778 25.3386 35.7204 25.4385 36.0114 25.6382C36.307 25.8333 36.5346 26.1004 36.6942 26.4395C36.8584 26.7785 36.9405 27.1617 36.9405 27.5891C36.9405 27.5937 36.9405 27.5984 36.9405 27.603C36.9405 27.603 36.9405 27.6053 36.9405 27.61H33.0338Z" fill="white"/>
<path d="M39.8689 31.8809H40.8895V27.4149C40.8895 27.0665 40.9552 26.7391 41.0866 26.4325C41.2227 26.1213 41.4339 25.8705 41.7202 25.68C42.0111 25.4896 42.3818 25.3944 42.8324 25.3944C43.2172 25.3944 43.5504 25.471 43.8319 25.6243C44.1182 25.7729 44.3388 25.9936 44.4936 26.2862C44.6485 26.5742 44.7259 26.9272 44.7259 27.3452V31.8809H45.7466V27.1919C45.7466 26.3094 45.4955 25.6359 44.9934 25.1714C44.4913 24.7023 43.8601 24.4677 43.0998 24.4677C42.6963 24.4677 42.3466 24.5281 42.051 24.6489C41.76 24.7696 41.5207 24.9183 41.333 25.0948C41.1453 25.2666 41.0069 25.4362 40.9177 25.6034H40.8895V24.5862H39.8689V31.8809Z" fill="white"/>
<path d="M50.5192 24.4677C49.9138 24.4677 49.3906 24.614 48.9494 24.9067C48.513 25.1946 48.1751 25.5918 47.9358 26.0981C47.6965 26.6044 47.5768 27.1896 47.5768 27.8538V28.6133C47.5768 29.2775 47.6894 29.8651 47.9147 30.376C48.1446 30.8869 48.4778 31.2841 48.9142 31.5674C49.3507 31.8507 49.8857 31.9924 50.5192 31.9924C50.7914 31.9924 51.0401 31.9599 51.2653 31.8949C51.4953 31.8298 51.7018 31.7416 51.8848 31.6301C52.0725 31.5186 52.2368 31.3863 52.3775 31.233C52.523 31.075 52.6427 30.9102 52.7365 30.7383H52.7647V31.8809H53.7291V21.8689H52.7154V25.6522H52.6873C52.5699 25.4431 52.408 25.2481 52.2016 25.0669C51.9951 24.8858 51.751 24.7418 51.4695 24.6349C51.1879 24.5235 50.8711 24.4677 50.5192 24.4677ZM50.6107 25.3665C51.0518 25.3665 51.4296 25.4733 51.744 25.687C52.0631 25.896 52.3071 26.191 52.4761 26.5718C52.645 26.9527 52.7295 27.3963 52.7295 27.9026V28.5784C52.7295 29.0987 52.645 29.5469 52.4761 29.9231C52.3118 30.2994 52.0725 30.5897 51.7581 30.794C51.4437 30.9938 51.0659 31.0936 50.6248 31.0936C50.2353 31.0936 49.888 31.0007 49.583 30.8149C49.2779 30.6291 49.0363 30.3481 48.8579 29.9719C48.6843 29.5957 48.5975 29.1288 48.5975 28.5715V27.9026C48.5975 27.3359 48.6843 26.8645 48.8579 26.4882C49.0363 26.112 49.2779 25.831 49.583 25.6452C49.888 25.4594 50.2306 25.3665 50.6107 25.3665Z" fill="white"/>
<path d="M61.4933 31.8809L63.6262 24.1263H63.6614L65.7872 31.8809H66.7094L69.3561 22.3775H68.2087L66.2378 30.0903H66.2026L64.1893 22.3775H63.0912L61.071 30.0903H61.0428L59.0718 22.3775H57.9244L60.5642 31.8809H61.4933Z" fill="white"/>
<path d="M72.3196 31.9994C72.6998 31.9994 73.0306 31.9506 73.3122 31.8531C73.5937 31.7555 73.8307 31.6255 74.0231 31.4629C74.2202 31.3003 74.3774 31.1215 74.4948 30.9264H74.5229V31.8809H75.5084V26.8087C75.5084 26.3071 75.3958 25.8844 75.1705 25.5407C74.9453 25.1923 74.6332 24.9276 74.2343 24.7464C73.8354 24.5606 73.3802 24.4677 72.8687 24.4677C72.4417 24.4677 72.0662 24.5211 71.7424 24.628C71.4233 24.7302 71.1511 24.8788 70.9259 25.0739C70.7053 25.2643 70.534 25.4919 70.412 25.7567C70.2947 26.0168 70.2243 26.3024 70.2008 26.6136H71.1652C71.1981 26.3582 71.2802 26.1352 71.4116 25.9448C71.543 25.7497 71.726 25.6011 71.9606 25.4989C72.2 25.392 72.4886 25.3386 72.8265 25.3386C73.3568 25.3386 73.7674 25.4757 74.0583 25.7497C74.3493 26.0191 74.4948 26.4093 74.4948 26.9202V27.7214H72.4815C71.6415 27.7261 71.0033 27.9165 70.5669 28.2928C70.1304 28.6644 69.9122 29.166 69.9122 29.7977C69.9122 30.4619 70.1351 30.9961 70.581 31.4002C71.0268 31.7996 71.6063 31.9994 72.3196 31.9994ZM72.559 31.1285C72.1366 31.1285 71.7659 31.017 71.4468 30.794C71.1277 30.5664 70.9681 30.225 70.9681 29.7698C70.9681 29.4122 71.0901 29.1196 71.3342 28.892C71.5782 28.6597 71.9724 28.5436 72.5167 28.5436H74.4948V29.4493C74.4948 29.7791 74.4103 30.0718 74.2413 30.3272C74.0724 30.578 73.8425 30.7754 73.5515 30.9194C73.2606 31.0588 72.9297 31.1285 72.559 31.1285Z" fill="white"/>
<path d="M77.7328 31.8809H78.7535V21.8689H77.7328V31.8809Z" fill="white"/>
<path d="M81.0975 31.8809H82.1182V21.8689H81.0975V31.8809Z" fill="white"/>
<path d="M87.1442 31.9994C87.5431 31.9994 87.9021 31.9483 88.2212 31.8461C88.5403 31.7393 88.8172 31.5953 89.0519 31.4141C89.2865 31.2283 89.4789 31.01 89.6291 30.7592C89.7839 30.5084 89.8942 30.239 89.9599 29.951H88.9322C88.8571 30.1832 88.7398 30.3876 88.5802 30.5641C88.4254 30.7406 88.2306 30.88 87.996 30.9822C87.7613 31.0797 87.4868 31.1285 87.1724 31.1285C86.5342 31.1285 86.0344 30.9009 85.673 30.4457C85.3164 29.9858 85.1381 29.382 85.1381 28.6342V28.4809H90.0655V27.8538C90.0655 27.171 89.9482 26.5765 89.7135 26.0702C89.4789 25.5639 89.1387 25.1714 88.6929 24.8927C88.2517 24.6094 87.7168 24.4677 87.0879 24.4677C86.4544 24.4677 85.9147 24.6094 85.4689 24.8927C85.0278 25.1714 84.6899 25.5593 84.4552 26.0563C84.2253 26.5533 84.1103 27.1246 84.1103 27.7702V28.5993C84.1103 29.2868 84.23 29.886 84.4693 30.3969C84.7133 30.9078 85.063 31.3026 85.5182 31.5813C85.9734 31.86 86.5154 31.9994 87.1442 31.9994ZM85.1381 27.61C85.1381 27.6053 85.1381 27.603 85.1381 27.603C85.1381 27.5984 85.1381 27.5937 85.1381 27.5891C85.1381 27.1617 85.2178 26.7785 85.3774 26.4395C85.5369 26.1004 85.7622 25.8333 86.0531 25.6382C86.3488 25.4385 86.6937 25.3386 87.0879 25.3386C87.4821 25.3386 87.8247 25.4385 88.1156 25.6382C88.4113 25.8333 88.6389 26.1004 88.7984 26.4395C88.9627 26.7785 89.0448 27.1617 89.0448 27.5891C89.0448 27.5937 89.0448 27.5984 89.0448 27.603C89.0448 27.603 89.0448 27.6053 89.0448 27.61H85.1381Z" fill="white"/>
<path d="M92.4025 24.5862H91.3889V25.4501H92.4025V29.9022C92.4025 30.3667 92.4518 30.7522 92.5503 31.0588C92.6536 31.3607 92.8483 31.586 93.1346 31.7346C93.4209 31.8786 93.8432 31.9506 94.4017 31.9506C94.5237 31.9506 94.641 31.9436 94.7536 31.9297C94.8662 31.9204 94.9484 31.9111 95 31.9018V31.0727C94.9484 31.0774 94.8944 31.082 94.8381 31.0867C94.7818 31.0913 94.7208 31.0936 94.6551 31.0936C94.1858 31.0936 93.862 31.0193 93.6837 30.8707C93.5053 30.7174 93.4162 30.4178 93.4162 29.9719V25.4501H94.9366V24.5862H93.4162V22.7607H92.4025V24.5862Z" fill="white"/>
</svg>
